<svg xmlns="http://www.w3.org/2000/svg" fill="none" viewBox="0 0 141 23"><path fill="#11C3D0" d="M16.7 0v23H8.3l8.4-23z"/><path fill="#3BD7E0" d="M0 23h8.3l8.4-23H8.3L0 23z"/><path fill="#11C3D0" d="M27.9 0v23h-8.4L28 0z"/><path fill="#3BD7E0" d="M11.2 23h8.3L28 0h-8.4l-8.3 23z"/><path fill="#11C3D0" d="M39.1 0v7.9L33.6 23h-2.8L39 0z"/><path fill="#3BD7E0" d="M22.4 23h8.4L39 0h-8.3l-8.4 23z"/><path fill="#EFFFFD" d="M49.4 18.1h3.2v-7.3c0-1.6 1-2.7 2.2-2.7 1.1 0 1.8.5 1.8 2.1v8H60v-7.4c0-1.6.9-2.7 2.2-2.7 1 0 1.8.5 1.8 2.1v8H67V9.5c0-3-1.5-4.3-3.8-4.3-1.6 0-3 .8-3.7 2h-.2c-.6-1.4-1.8-2-3.3-2-1.6 0-2.9.8-3.6 2h-.2L52 5.5h-2.6v12.6zM73.2 18.4a5 5 0 004-1.7h.2c.3 1 1.2 1.7 2.6 1.7.9 0 1.5-.2 1.9-.4v-2.2H81c-.4 0-.8-.3-.8-.9V9.3c0-2.7-1.9-4-5.2-4-3.2 0-5.3 1.4-5.3 3.6v.4H73v-.2c0-.7.6-1.4 2.1-1.4s2 .8 2 1.9v.9c-4.7 0-7.8.9-7.8 4.4 0 2.9 2.3 3.5 4 3.5zm1.1-2.5c-1 0-1.7-.5-1.7-1.4 0-1.5 1.9-2 4.5-2v.7c0 1.6-1 2.7-2.8 2.7zM87.4 18.4c1.7 0 3.1-.8 4-2h.1l.3 1.7h2.6V5.5h-3.2V13c0 1.5-1 2.7-2.5 2.7-1.3 0-2-.6-2-2.2V5.5h-3.3V14c0 3.2 1.5 4.5 4 4.5zM102.3 18.4c3.2 0 5.6-1 5.6-4.1 0-3.2-3-3.5-5.2-4-1.3-.4-2.4-.7-2.4-1.5 0-.7.8-1.1 2-1.1 1.3 0 2.2.5 2.2 1.4v.1h3v-.4c0-2.3-2.2-3.5-5-3.5-3 0-5.4 1.2-5.4 3.8 0 2.7 2.3 3.3 4.4 3.9 1.7.4 3.2.6 3.2 1.7 0 1-1.2 1.3-2.3 1.3-1.3 0-2.4-.5-2.4-1.7v-.2h-3.2v.4c0 2.4 2.2 3.9 5.5 3.9zM110.6 18.1h3.4v-3.5h-3.4v3.5zM121 18.4a7 7 0 002.2-.4v-2.2h-1c-.8 0-1.2-.4-1.2-1.2V8.1h2.2V5.5H121V2h-2.5l-.6 3.5h-1.6v2.6h1.5v7.1c0 1.8 1 3.2 3.2 3.2zM131 18.4c4 0 6.2-2 6.2-6.6 0-4.4-2.2-6.5-6.2-6.5s-6.3 2-6.3 6.5 2.2 6.6 6.3 6.6zm0-2.6c-2.1 0-3-1.2-3-3.7v-.6c0-2.4.9-3.6 3-3.6 2 0 2.8 1.2 2.8 3.6v.6c0 2.5-.8 3.7-2.8 3.7z"/></svg>
