<svg xmlns="http://www.w3.org/2000/svg" fill="none" viewBox="0 0 71 39"><path fill="#EFFFFD" fill-opacity=".1" d="M0 38.8h1.8V35c0-.8.6-1.4 1.3-1.4.6 0 1 .3 1 1.1v4.2H6V35c0-.8.5-1.4 1.2-1.4.6 0 1 .3 1 1.1v4.2H10v-4.5C10 32.7 9.2 32 8 32c-1 0-1.7.4-2.1 1h-.1c-.4-.7-1-1-1.9-1-.9 0-1.6.4-2 1h-.1l-.2-.9H0v6.7zM13.5 39c1.1 0 1.8-.4 2.3-.9.2.5.7.9 1.5.9l1.1-.2v-1.2H18c-.3 0-.5-.1-.5-.4v-3c0-1.5-1-2.2-3-2.2-1.8 0-3 .7-3 2v.2h1.9V34c0-.4.3-.7 1.2-.7.8 0 1 .4 1 1v.5c-2.6 0-4.3.4-4.3 2.3 0 1.6 1.3 1.9 2.2 1.9zm.6-1.3c-.6 0-1-.3-1-.8 0-.8 1.1-1 2.6-1v.3c0 .9-.6 1.5-1.6 1.5zM21.5 39c1 0 1.8-.4 2.3-1l.2.8h1.5v-6.7h-1.8v4c0 .8-.6 1.4-1.5 1.4-.7 0-1.1-.3-1.1-1.2v-4.2h-1.9v4.5c0 1.7 1 2.4 2.3 2.4zM30 39c1.7 0 3.1-.6 3.1-2.2 0-1.7-1.7-1.8-3-2.2-.7-.2-1.3-.3-1.3-.7 0-.4.5-.6 1.2-.6s1.2.3 1.2.7v.1h1.7V34c0-1.2-1.3-1.9-2.9-1.9-1.7 0-3 .6-3 2 0 1.5 1.3 1.8 2.5 2.1 1 .2 1.8.4 1.8 1 0 .4-.7.6-1.3.6-.7 0-1.4-.2-1.4-.9h-1.8v.1c0 1.3 1.3 2.1 3.2 2.1zM35.8 38.8h1.9l.8-3 .3-1.5h.1l.4 1.6.7 3h2l2-6.8h-1.7l-.9 3.3-.3 1.4-.4-1.4L40 32h-2l-.7 3.3-.4 1.4-.4-1.4-.8-3.3h-2l2.2 6.7zM48.1 39c2.3 0 3.5-1.1 3.5-3.5S50.4 32 48.1 32s-3.5 1.1-3.5 3.5S45.8 39 48 39zm0-1.4c-1.2 0-1.6-.7-1.6-2v-.3c0-1.3.4-2 1.6-2 1.2 0 1.6.7 1.6 2v.4c0 1.2-.4 2-1.6 2zM53 38.8h1.8v-3.3c0-1.2.5-1.8 1.6-1.8h.6v-1.6a2 2 0 00-.7-.1c-.8 0-1.3.5-1.6 1.2l-.2-1H53v6.6zM58 38.8h1.8V37l1-1 1.5 2.8h2.1l-2.4-4 2.3-2.7h-2.1L59.8 35v-5.3h-1.9v9.2zM67.8 39c1.8 0 3.2-.6 3.2-2.2 0-1.7-1.7-1.8-3-2.2-.7-.2-1.3-.3-1.3-.7 0-.4.5-.6 1.1-.6.8 0 1.2.3 1.2.7v.1h1.8V34c0-1.2-1.3-1.9-2.9-1.9-1.7 0-3 .6-3 2 0 1.5 1.3 1.8 2.5 2.1 1 .2 1.8.4 1.8 1 0 .4-.7.6-1.3.6-.7 0-1.4-.2-1.4-.9h-1.8v.1c0 1.3 1.2 2.1 3.1 2.1zM33.5 0v21.2h-8l8-21.2z"/><path fill="#282828" d="M17.4 21.2h8l8-21.2h-8l-8 21.2z"/><path fill="#EFFFFD" fill-opacity=".1" d="M44.3 0v21.2h-8l8-21.2z"/><path fill="#282828" d="M28.2 21.2h8L44.4 0h-8l-8 21.2z"/><path fill="#EFFFFD" fill-opacity=".1" d="M55.2 0v7.3l-5.3 13.9h-2.8l8-21.2z"/><path fill="#282828" d="M39 21.2h8.1l8-21.2h-8l-8 21.2z"/></svg>
